<?xml version="1.0" encoding="utf-8"?>
<!-- Generator: Adobe Illustrator 21.0.2, SVG Export Plug-In . SVG Version: 6.00 Build 0)  -->
<svg version="1.1" id="Layer_1" xmlns="http://www.w3.org/2000/svg" xmlns:xlink="http://www.w3.org/1999/xlink" x="0px" y="0px"
	 viewBox="0 0 216 216" style="enable-background:new 0 0 216 216;" xml:space="preserve">
<style type="text/css">
	.st0{fill:#368DD8;}
</style>
<title>logo</title>
<path class="st0" d="M183.4,173.1c0-11.3,8.4-20.8,19.6-22.3c11.2-24.2,12.5-51.8,3.6-76.9c-12-3.2-19-15.5-15.8-27.5
	c0.1-0.3,0.2-0.6,0.3-0.9c-15.7-20.4-38.6-34.1-64-38.4c-4.3,4.9-10.4,7.8-16.9,7.8s-12.7-2.8-16.9-7.8C67.9,11.4,45.2,24.9,29.5,45
	c0.8,2.3,1.2,4.8,1.2,7.2c0,10.3-7.1,19.3-17.2,21.8c-8.1,23.1-7.7,48.3,1.2,71.1c9.5,2.9,16,11.6,16,21.5c0,1.7-0.2,3.4-0.6,5.1
	c15.7,19.7,38.1,33,63,37.2c8.1-9.4,22.2-10.4,31.6-2.3c0.8,0.7,1.6,1.5,2.3,2.3c21.8-3.7,41.8-14.3,57.1-30.4
	C183.6,176.8,183.4,174.9,183.4,173.1z M110.1,197.2c-49.3,0-89.2-39.9-89.2-89.2s39.9-89.2,89.2-89.2s89.2,39.9,89.2,89.2
	C199.2,157.3,159.3,197.2,110.1,197.2z"/>
<path class="st0" d="M110.1,179.8c-39.7,0-71.8-32.2-71.8-71.8s32.2-71.8,71.8-71.8c39.7,0,71.8,32.2,71.8,71.8
	C181.8,147.6,149.7,179.8,110.1,179.8z M99.4,137.2c4.9,3.6,10.8,5.6,16.9,5.5c6.6,0,12.2-2.1,16.5-6.2c4.2-3.8,6.6-9.2,6.5-14.8
	c0-3.7-0.9-7.4-2.8-10.7c-0.9-1.5-1.9-3-3.1-4.3c-1-1.2-2.2-2.3-3.6-3.2c-4.6-2.9-9.4-5.4-14.3-7.8c-5.5-2.7-8.6-4.4-9.7-5.2
	c-1.3-1-2-2.5-1.9-4.1c0-2.1,0.8-5.6,6.4-5.6c5.3,0,9.1,2.9,11.3,8.6h14.6V70.7h-14.5v5.6l-1.6-1.3c-4.4-3.5-10-5.4-15.7-5.2
	c-5.7-0.2-11.2,1.8-15.5,5.5c-4.2,3.6-6.3,8.7-6.3,15.2c0,3.5,0.9,6.9,2.6,9.8c1.6,2.8,3.8,5.2,6.4,7.1c4.1,2.7,8.5,5,13,6.9
	c4.8,2.2,8,3.8,9.5,5.1c1.5,1.1,2.4,3,2.4,4.9c0,2.6-1.2,5.7-6.9,5.7s-9.7-3.2-11.8-9.6H83.4v21.4h14.4V136L99.4,137.2z"/>
</svg>
