<?xml version="1.0" encoding="utf-8"?>
<!-- Generator: Adobe Illustrator 22.0.1, SVG Export Plug-In . SVG Version: 6.00 Build 0)  -->
<svg version="1.1" id="Layer_1" xmlns:svgjs="http://svgjs.com/svgjs"
	 xmlns="http://www.w3.org/2000/svg" xmlns:xlink="http://www.w3.org/1999/xlink" x="0px" y="0px" viewBox="0 0 46 22"
	 style="enable-background:new 0 0 46 22;" xml:space="preserve">
<style type="text/css">
	.st0{fill:#FFFFFF;}
</style>
<g>
	<path class="st0" d="M28.9,17.7c0-1.2,0.9-2.2,2-2.3c1.2-2.5,1.3-5.4,0.4-8c-1.2-0.3-2-1.6-1.6-2.8c0,0,0-0.1,0-0.1
		c-1.6-2.1-4-3.5-6.6-4c-0.4,0.5-1.1,0.8-1.8,0.8S20,1.1,19.6,0.5c-2.6,0.4-5,1.8-6.6,3.9C13,4.7,13.1,5,13.1,5.2
		c0,1.1-0.7,2-1.8,2.3c-0.8,2.4-0.8,5,0.1,7.4c1,0.3,1.7,1.2,1.7,2.2c0,0.2,0,0.4-0.1,0.5c1.6,2,3.9,3.4,6.5,3.9
		c0.8-1,2.3-1.1,3.3-0.2c0.1,0.1,0.2,0.2,0.2,0.2c2.3-0.4,4.3-1.5,5.9-3.2C28.9,18.1,28.9,17.9,28.9,17.7z M21.3,20.2
		c-5.1,0-9.2-4.1-9.2-9.2s4.1-9.2,9.2-9.2s9.2,4.1,9.2,9.2C30.5,16.1,26.4,20.2,21.3,20.2z"/>
	<path class="st0" d="M21.3,18.4c-4.1,0-7.4-3.3-7.4-7.4s3.3-7.4,7.4-7.4c4.1,0,7.4,3.3,7.4,7.4C28.7,15.1,25.4,18.4,21.3,18.4z
		 M20.2,14c0.5,0.4,1.1,0.6,1.8,0.6c0.7,0,1.3-0.2,1.7-0.6c0.4-0.4,0.7-1,0.7-1.5c0-0.4-0.1-0.8-0.3-1.1c-0.1-0.2-0.2-0.3-0.3-0.4
		c-0.1-0.1-0.2-0.2-0.4-0.3c-0.5-0.3-1-0.6-1.5-0.8c-0.6-0.3-0.9-0.5-1-0.5c-0.1-0.1-0.2-0.3-0.2-0.4c0-0.2,0.1-0.6,0.7-0.6
		c0.5,0,0.9,0.3,1.2,0.9H24V7.1h-1.5v0.6l-0.2-0.1c-0.5-0.4-1-0.6-1.6-0.5c-0.6,0-1.2,0.2-1.6,0.6c-0.4,0.4-0.7,0.9-0.7,1.6
		c0,0.4,0.1,0.7,0.3,1c0.2,0.3,0.4,0.5,0.7,0.7c0.4,0.3,0.9,0.5,1.3,0.7c0.5,0.2,0.8,0.4,1,0.5c0.2,0.1,0.2,0.3,0.2,0.5
		c0,0.3-0.1,0.6-0.7,0.6s-1-0.3-1.2-1h-1.5v2.2H20v-0.6L20.2,14z"/>
</g>
</svg>
